<svg width="31" height="26" viewBox="0 0 31 26" fill="none" xmlns="http://www.w3.org/2000/svg">
<path fill-rule="evenodd" clip-rule="evenodd" d="M15.5 24.2757C15.4988 24.2761 15.4977 24.2764 15.4965 24.2767C14.526 24.5458 13.504 24.6895 12.4487 24.6895C6.14269 24.6895 1.02295 19.3407 1.02295 13C1.02295 6.65934 6.14269 1.31055 12.4487 1.31055C13.5105 1.31055 14.5386 1.45606 15.5144 1.72834L15.5991 1.69718L15.6044 1.69574C16.4176 1.47839 17.2664 1.34886 18.14 1.31784C18.2765 1.31299 18.4135 1.31055 18.5511 1.31055C24.8571 1.31055 29.9768 6.65934 29.9768 13C29.9768 19.3407 24.8571 24.6895 18.5511 24.6895C17.4946 24.6895 16.4714 24.5454 15.5 24.2757ZM1.27274 13C1.27274 6.81162 6.2721 1.57045 12.4487 1.57045C18.6252 1.57045 23.6246 6.81162 23.6246 13H23.624C23.624 15.8052 21.357 18.3037 18.5511 18.3037C17.5008 18.3037 16.5261 17.984 15.7175 17.4368C16.9663 16.4593 17.7713 14.7165 17.7713 13C17.7713 10.0425 15.384 7.43636 12.4487 7.43636C9.51333 7.43636 7.12603 10.0425 7.12603 13H7.12539C7.12539 18.1021 10.4403 22.6383 15.0207 24.1312C14.1951 24.3263 13.334 24.4296 12.4487 24.4296C6.2721 24.4296 1.27274 19.1884 1.27274 13ZM15.5141 24.0107H15.5086C15.5045 24.0118 15.5038 24.0054 15.4997 24.0066C10.8084 22.6739 7.37518 18.1283 7.37518 13H7.37581C7.37581 10.1948 9.64273 7.69626 12.4487 7.69626C13.4989 7.69626 14.4737 8.01597 15.2823 8.56317C14.0335 9.54074 13.2285 11.2835 13.2285 13C13.2285 15.9575 15.6158 18.5636 18.5511 18.5636C21.4864 18.5636 23.8737 15.9575 23.8737 13H23.8744C23.8744 7.89794 20.5595 3.36174 15.979 1.86882C16.679 1.70341 17.4045 1.60401 18.1485 1.57759C18.2821 1.57284 18.4163 1.57045 18.5511 1.57045C24.7277 1.57045 29.727 6.81162 29.727 13C29.727 19.1884 24.7277 24.4296 18.5511 24.4296C17.4982 24.4296 16.4796 24.2836 15.5141 24.0107ZM15.5 8.71895C14.2709 9.64831 13.4783 11.3403 13.4783 13C13.4783 14.6592 14.2713 16.3519 15.4998 17.2811C16.7289 16.3517 17.5215 14.6597 17.5215 13C17.5215 11.3408 16.7285 9.64813 15.5 8.71895Z" fill="black" stroke="white" stroke-width="2"/>
</svg>
